inDegrees=no
num_controls=7
num_derivatives=13
num_iterations=110
num_multipliers=7
num_parameters=0
num_slacks=7
num_states=26
objective=5.852214
objective_accelerations=0.632335
objective_balance=0.009114
objective_effort=0.477052
objective_height=4.611002
objective_ligament=0.122712
solver_duration=927.478748
status=Solve_Succeeded
success=true
DataType=double
version=3
OpenSimVersion=4.4-2022-07-23-0e9fedc
endheader
time	/jointset/ground_pelvis/pelvis_tilt/value	/jointset/ground_pelvis/pelvis_tx/value	/jointset/ground_pelvis/pelvis_ty/value	/jointset/hip_r/hip_flexion_r/value	/jointset/hip_r/hip_adduction_r/value	/jointset/hip_r/hip_rotation_r/value	/jointset/back/lumbar_extension/value	/jointset/patellofemoral_r/patellar_flexion_r/value	/jointset/knee_r/knee_flexion_r/value	/jointset/knee_r/knee_adduction_r/value	/jointset/knee_r/knee_rotation_r/value	/jointset/ankle_r/ankle_angle_r/value	/jointset/subtalar_r/subtalar_angle_r/value	/jointset/ground_pelvis/pelvis_tilt/speed	/jointset/ground_pelvis/pelvis_tx/speed	/jointset/ground_pelvis/pelvis_ty/speed	/jointset/hip_r/hip_flexion_r/speed	/jointset/hip_r/hip_adduction_r/speed	/jointset/hip_r/hip_rotation_r/speed	/jointset/back/lumbar_extension/speed	/jointset/patellofemoral_r/patellar_flexion_r/speed	/jointset/knee_r/knee_flexion_r/speed	/jointset/knee_r/knee_adduction_r/speed	/jointset/knee_r/knee_rotation_r/speed	/jointset/ankle_r/ankle_angle_r/speed	/jointset/subtalar_r/subtalar_angle_r/speed	/forceset/tau_hip_flexion_r	/forceset/tau_hip_adduction_r	/forceset/tau_hip_rotation_r	/forceset/tau_knee_flexion_r	/forceset/tau_ankle_angle_r	/forceset/tau_subtalar_angle_r	/forceset/tau_lumbar_extension	lambda_cid13_p0	lambda_cid14_p0	lambda_cid14_p1	lambda_cid14_p2	lambda_cid14_p3	lambda_cid14_p4	lambda_cid14_p5	/jointset/ground_pelvis/pelvis_tilt/accel	/jointset/ground_pelvis/pelvis_tx/accel	/jointset/ground_pelvis/pelvis_ty/accel	/jointset/hip_r/hip_flexion_r/accel	/jointset/hip_r/hip_adduction_r/accel	/jointset/hip_r/hip_rotation_r/accel	/jointset/back/lumbar_extension/accel	/jointset/patellofemoral_r/patellar_flexion_r/accel	/jointset/knee_r/knee_flexion_r/accel	/jointset/knee_r/knee_adduction_r/accel	/jointset/knee_r/knee_rotation_r/accel	/jointset/ankle_r/ankle_angle_r/accel	/jointset/subtalar_r/subtalar_angle_r/accel	gamma_cid13_p0	gamma_cid14_p0	gamma_cid14_p1	gamma_cid14_p2	gamma_cid14_p3	gamma_cid14_p4	gamma_cid14_p5
1.5	-0.08254587242175498	0.03162423076429752	0.8129428904346828	0.8196239652880317	-0.2525994052958307	-0.04835925169843446	-0.6301632051344118	0.9621015510452551	0.9621015510452202	0.06360936287985014	0.1732281906792345	0.3010882586879728	0.09378473914170306	0.4654756054960145	0.2172350192196346	0.5169165583658524	-2.03077196823556	0.04477772811372485	-0.5651774391787082	0.7981582066869977	-2.008347425063591	-2.008347425063788	0.05225984285203824	0.006391080743059373	-0.5209124095643592	-0.1000777542439253	-0.1591708405694555	-0.009254931345797185	0.03711909430145841	-0.3189939565187941	0.0212619807523616	-0.01255989418561344	0.2137596727589056	-7.593640695202413	-35.86934579267932	-10.56370014980071	0.7679135120450759	-4.194413063686807	-633.0412013143506	65.31709666517145	0.1132554682522716	0.5915400090578329	-0.4687798911001529	-1.038672518543196	0.298733073697306	-0.1293258991420018	1.854361319317851	-1.499868600633816	-1.499868600633814	0.4598748656840047	0.02528930291541567	-0.5940359645558834	0.3177832648493719	7.450732013791812e-08	-4.004639907930347e-08	-1.920742077472678e-06	-4.395253401890666e-08	2.125377612252809e-07	2.047617241429562e-07	-1.261977164426644e-06
1.51	-0.07788562849820567	0.03382594459315939	0.8180875776288883	0.7992662464017339	-0.2521374216411597	-0.05401815266472838	-0.6220905137897856	0.9419455556726195	0.9419455556725693	0.06415563142080284	0.173295311560543	0.29584995972768	0.09279881175549939	0.4665106857931857	0.2230824676372004	0.5119091145672455	-2.040499992124745	0.04760439726219509	-0.5665107261779134	0.816269216116451	-2.022563848450248	-2.022563848450286	0.05705689696462263	0.007021825745807608	-0.5266642628464508	-0.09711345995210457	-0.1519899200124344	-0.01038226831577058	0.0362518984125988	-0.3146652320406886	0.0229744207092037	-0.01302093985706856	0.2071055899908606	-8.608971456797198	-35.027633690987	-10.50873316649711	0.6359923912399165	-4.303706951790311	-628.0592106444108	64.86090973482034	0.08925243384496108	0.5775956403999658	-0.5334465783987461	-0.899101895124374	0.2723227756069337	-0.1213641207861136	1.772843836048808	-1.339375946124512	-1.339375946100528	0.4988115241887192	0.08023347884785473	-0.5532411379964011	0.2845991990054517	8.107060977978926e-08	-3.438066281113413e-08	-1.904837366464637e-06	1.272091918973314e-08	2.049853251826615e-07	2.178945307276974e-07	-1.235811708134392e-06
1.52	-0.0732169101470122	0.03608538258265558	0.8231788463942763	0.7788194003623514	-0.2516476335069563	-0.05968759330512213	-0.6138400377346059	0.9216560267184298	0.9216560267183612	0.06475170867088695	0.1733683931678663	0.2905566460089749	0.09184229664974634	0.4671704910262027	0.2287798513464996	0.506232872602396	-2.048597398854643	0.05033862401806957	-0.5672853739961723	0.8337151487975093	-2.035054141374617	-2.035054141374496	0.06222158468292163	0.007583225944284368	-0.5319153612469656	-0.0941952981539992	-0.1448089994553121	-0.01150960528575787	0.03538470252387308	-0.3103365075625636	0.02468686066603627	-0.01348198552855057	0.2004515072229053	-9.681107054236593	-34.18362044900709	-10.44660556233167	0.49521049699612	-4.432111745339519	-623.0435627684718	64.44670782198614	0.03820045542111828	0.561527067404747	-0.6025395243486346	-0.7125490866859447	0.2802445951781434	-0.01759806295270286	1.721345969638629	-1.154642508176233	-1.154642508176234	0.5334015868269876	0.01142034206110871	-0.4938849882402359	0.3085567661063793	8.681180777222854e-08	-1.912140781305093e-08	-1.749395768373255e-06	1.105104661263303e-07	1.798759162817652e-07	2.234833145553313e-07	-1.126708886511184e-06
1.53	-0.068543595051935	0.03840097943523568	0.8282100442187245	0.7582999558901047	-0.2511309094196499	-0.06536127002970821	-0.6054184605205073	0.9012503984415163	0.9012503984414419	0.06540160209025259	0.1734460367241799	0.2852134153219044	0.09091484750196066	0.4674270609185855	0.2343075477861073	0.4999010025853574	-2.055010717584958	0.05298692697896311	-0.567364919759405	0.8504722547672402	-2.045772134741985	-2.045772134741919	0.06780941665741201	0.007932498372814595	-0.5366426252131608	-0.091305323007975	-0.1375567528275869	-0.01251460476558533	0.03448110336275424	-0.3062487824116048	0.0265507346455719	-0.01415103212844205	0.1937287452213366	-10.76369530523333	-33.32159388493182	-10.4910837995172	0.3936129857201967	-4.530517439948116	-618.2596384175683	63.85948680638294	0.009564111871364264	0.5436177620862581	-0.6643202441266333	-0.5636056919932216	0.2541871313271992	0.009772717165954972	1.633687021939118	-0.9854897182614206	-0.9854897182695194	0.5791428112696742	0.04476510715008471	-0.4488894807204729	0.2774362961202709	9.167953338714648e-08	6.330960835565629e-09	-1.445696227755828e-06	2.519858626488818e-07	1.361122237189497e-07	2.21056574203539e-07	-9.294851142238357e-07
1.54	-0.0638696784867942	0.04077089861818115	0.8331747614422533	0.7377248017454029	-0.2505882895057647	-0.07103316110190752	-0.5968331534244512	0.8807465678374791	0.8807465678373976	0.06610890759102621	0.1735267898875714	0.2798255635191912	0.09001594178709027	0.467290785039976	0.2396443174195732	0.4929367524185722	-2.05973933334682	0.05551778933115255	-0.5669282435156595	0.8664611251889409	-2.054694606799122	-2.054694606799109	0.07370400097228005	0.008205147357385192	-0.5408395843758067	-0.08848661157115509	-0.1303045061998029	-0.01351960424544397	0.03357750420180997	-0.3021610572606322	0.02841460862509514	-0.0148200787283877	0.1870059832198227	-11.84672982177081	-32.46048489507232	-10.53267572507472	0.2880743334901097	-4.638415101730267	-613.4878953140702	63.3136354921122	-0.04036869877762515	0.5233417061766362	-0.7290155542979001	-0.3756084929955808	0.2567564734373079	0.08564633844290542	1.5676988600324	-0.7955382461297666	-0.7955382461297675	0.5947520549025789	-0.003904346730837227	-0.3878240275300736	0.2943040242656009	9.811232117022519e-08	2.543429546315325e-08	-1.267234040086244e-06	3.63693429943883e-07	1.081288851520583e-07	2.254689001644778e-07	-8.172974628731154e-07
1.55	-0.05919915159930247	0.04319316681423292	0.8380667461148985	0.717110875580972	-0.2500209644430096	-0.07669799754927786	-0.5880918953401768	0.8601625580381813	0.8601625580381227	0.06687671950852866	0.1736097031947584	0.2743984247610343	0.08914486753531495	0.4667441249079816	0.2447705885089058	0.4853618697555204	-2.062753900129462	0.05792851751235353	-0.5659622403995769	0.881649789697167	-2.061797850104263	-2.06179785010429	0.0798904555521507	0.008358276793982183	-0.5444946729560002	-0.08573557645037561	-0.1230260013666875	-0.01477890437829124	0.03265485766153806	-0.2983139245908573	0.03032813301405096	-0.01543610139820058	0.1802709990346921	-12.92643699181924	-31.60100579122767	-10.54353744254818	0.168513730528399	-4.718578147703266	-609.0097610901609	62.9035696498399	-0.07238331972520418	0.5014783951780676	-0.786422557501434	-0.2205767535692037	0.2304011056440314	0.1137591148477444	1.473344950422518	-0.6213141141943116	-0.6213141142001607	0.6352363197191609	0.02210292749805087	-0.3402937331553668	0.2642689593564167	1.063483327557499e-07	3.72224387186862e-08	-1.233067063421778e-06	4.411032809549696e-07	9.832725879786074e-08	2.377610199205197e-07	-8.030862117319826e-07
1.56	-0.05453620504299758	0.04566553943815104	0.8428800423738748	0.6964755645521898	-0.2494300980753915	-0.08235083760216909	-0.5792029716699785	0.8395167964575367	0.8395167964574992	0.0677073248038742	0.1736935840640337	0.2689375466250974	0.08830105677542308	0.4657747188034167	0.2496652029928395	0.4771990696848324	-2.064016306218924	0.06022605030085239	-0.564528964617219	0.8959942423736047	-2.067044963068925	-2.06704496306899	0.08626267653960346	0.008398659776300827	-0.5475874599318464	-0.08303391319470092	-0.1157474965334911	-0.01603820451114538	0.03173221112127086	-0.2944667919210651	0.0322416574030038	-0.01605212406802436	0.1735360148496325	-13.99815558109465	-30.74312751648084	-10.55223686172003	0.04581758222272398	-4.806133165150293	-604.5526284855416	62.53734143872728	-0.1249178932920445	0.4770103850971441	-0.8465990358251324	-0.02517635435963911	0.2341173948968935	0.1791008716979866	1.398856493674537	-0.4243121780339992	-0.4243121780339971	0.6319053364190521	-0.02645363758652542	-0.2753637066603146	0.2844296512447294	1.151460661588902e-07	5.073680685553723e-08	-1.202508001844541e-06	5.244771813567552e-07	8.766466520308224e-08	2.546371714908337e-07	-7.962189275405018e-07
1.57	-0.04988505761801454	0.04818561602482923	0.8476088591163458	0.6758364194850098	-0.2488168893996297	-0.08798691107625244	-0.5701750277560511	0.8188278957450461	0.8188278957450648	0.06860269068771556	0.1737772228126557	0.26344853392418	0.08748392558532363	0.4643829283660579	0.2543026030117191	0.4684739658001414	-2.063509119687077	0.06239443777592793	-0.5626191010500966	0.909434891059017	-2.07041299005741	-2.070412990057492	0.09282619695531925	0.008313281366609465	-0.5501189294838126	-0.08040153827053231	-0.1084896809344585	-0.01723560633852518	0.03079138076939171	-0.2907710479420509	0.03410945389628219	-0.01680067930906771	0.1668188389555051	-15.05853098370359	-29.93177191004786	-10.63624394248513	-0.05390270524092723	-4.809858036098046	-600.4155454335752	62.07251879734552	-0.1570809455573113	0.4499919448524035	-0.8989549643152102	0.1342123243801419	0.2050138904064668	0.2071026091009429	1.292721652579068	-0.2447455770257481	-0.2447455770282317	0.6707756031743318	-0.001845828885321556	-0.2275830265384001	0.2511554620524319	1.246459518340501e-07	6.640895609403585e-08	-1.17645883412634e-06	6.153061434969144e-07	7.592586255757749e-08	2.77243362828988e-07	-7.98531602036086e-07
